<svg width="17" height="17" viewBox="0 0 17 17" fill="none" xmlns="http://www.w3.org/2000/svg">
<path d="M8.5 17C8.31262 17 8.1508 16.9375 8.01453 16.8124C7.88393 16.6931 7.8016 16.5339 7.76753 16.335C7.63126 15.3915 7.48647 14.5759 7.33317 13.8882C7.18554 13.2004 7.00384 12.6179 6.78808 12.1404C6.57799 11.6573 6.31396 11.2566 5.99599 10.9383C5.67802 10.6143 5.28056 10.35 4.80361 10.1454C4.32665 9.94082 3.75033 9.77031 3.07465 9.6339C2.40464 9.49181 1.60972 9.35824 0.68988 9.2332C0.485471 9.21046 0.317969 9.13089 0.187375 8.99448C0.0624583 8.85807 0 8.69325 0 8.5C0 8.30675 0.0652973 8.14193 0.195892 8.00552C0.326486 7.86911 0.491149 7.78669 0.68988 7.75827C1.79709 7.63892 2.72829 7.49682 3.48347 7.332C4.23864 7.16148 4.86039 6.92845 5.3487 6.6329C5.84269 6.33735 6.24015 5.94233 6.54108 5.44784C6.84202 4.94768 7.08333 4.30826 7.26503 3.52959C7.44673 2.75092 7.61423 1.79321 7.76753 0.656469C7.8016 0.457539 7.88393 0.298395 8.01453 0.179037C8.1508 0.059679 8.31262 0 8.5 0C8.6817 0 8.83784 0.059679 8.96844 0.179037C9.10471 0.298395 9.18988 0.457539 9.22395 0.656469C9.38293 1.79321 9.55327 2.75092 9.73497 3.52959C9.92234 4.30257 10.1665 4.93915 10.4674 5.43932C10.7684 5.9338 11.163 6.32882 11.6513 6.62437C12.1396 6.91993 12.7614 7.15296 13.5165 7.32347C14.2717 7.4883 15.2029 7.63323 16.3101 7.75827C16.5032 7.78669 16.665 7.86911 16.7956 8.00552C16.9319 8.14193 17 8.30675 17 8.5C17 8.69325 16.9319 8.85807 16.7956 8.99448C16.665 9.13089 16.5003 9.21046 16.3016 9.2332C15.2001 9.35824 14.2689 9.50602 13.508 9.67653C12.7528 9.84136 12.1283 10.0715 11.6343 10.3671C11.146 10.6627 10.7513 11.0605 10.4504 11.5607C10.1551 12.0552 9.91383 12.6917 9.72645 13.4704C9.54476 14.2434 9.37725 15.1983 9.22395 16.335C9.19556 16.5339 9.11323 16.6931 8.97695 16.8124C8.84636 16.9375 8.68737 17 8.5 17Z" fill="#2F2C2A"/>
</svg>
